<svg xmlns="http://www.w3.org/2000/svg" xmlns:xlink="http://www.w3.org/1999/xlink" width="500" zoomAndPan="magnify" viewBox="0 0 375 374.999991" height="500" preserveAspectRatio="xMidYMid meet" version="1.0"><defs><g/><clipPath id="fa35f0be88"><path d="M 63.078125 108.824219 L 323.328125 108.824219 L 323.328125 263.324219 L 63.078125 263.324219 Z M 63.078125 108.824219 " clip-rule="nonzero"/></clipPath><clipPath id="5cd5730e02"><rect x="0" width="107" y="0" height="209"/></clipPath><clipPath id="c5a4b6dcad"><rect x="0" width="98" y="0" height="169"/></clipPath><clipPath id="8b2e76cc59"><rect x="0" width="207" y="0" height="38"/></clipPath></defs><g clip-path="url(#fa35f0be88)"><path fill="#f4ca27" d="M 63.078125 263.359375 C 63.078125 263.359375 67.792969 203.039062 189.1875 178.46875 C 310.578125 153.898438 321.707031 108.96875 321.707031 108.96875 C 321.707031 108.96875 339.164062 158.308594 249.558594 194.976562 C 159.957031 231.644531 98.617188 201.996094 63.078125 263.359375 " fill-opacity="1" fill-rule="nonzero"/></g><g transform="matrix(1, 0, 0, 1, 88, 60)"><g clip-path="url(#5cd5730e02)"><g fill="#1b1a1a" fill-opacity="1"><g transform="translate(0.91515, 174.146812)"><g><path d="M 59 -68.15625 C 67.1875 -66.3125 73.84375 -64.003906 78.96875 -61.234375 C 84.101562 -58.472656 88.023438 -55.503906 90.734375 -52.328125 C 93.441406 -49.160156 95.285156 -45.960938 96.265625 -42.734375 C 97.253906 -39.503906 97.75 -36.390625 97.75 -33.390625 C 97.75 -27.046875 96.015625 -21.160156 92.546875 -15.734375 C 89.085938 -10.316406 83.957031 -5.9375 77.15625 -2.59375 C 70.351562 0.75 61.878906 2.421875 51.734375 2.421875 C 41.691406 2.421875 32.894531 0.835938 25.34375 -2.328125 C 17.789062 -5.503906 11.648438 -9.34375 6.921875 -13.84375 L 21.796875 -37.546875 C 20.867188 -29.816406 22.132812 -23.210938 25.59375 -17.734375 C 29.0625 -12.253906 33.847656 -8.070312 39.953125 -5.1875 C 46.066406 -2.300781 52.585938 -0.859375 59.515625 -0.859375 C 66.085938 -0.859375 71.21875 -2.097656 74.90625 -4.578125 C 78.59375 -7.054688 81.1875 -10.195312 82.6875 -14 C 84.1875 -17.8125 84.9375 -21.679688 84.9375 -25.609375 C 84.9375 -31.597656 83.523438 -36.320312 80.703125 -39.78125 C 77.878906 -43.25 73.925781 -45.960938 68.84375 -47.921875 C 63.769531 -49.878906 57.773438 -51.664062 50.859375 -53.28125 C 40.015625 -55.9375 31.679688 -59.3125 25.859375 -63.40625 C 20.035156 -67.5 16.023438 -71.9375 13.828125 -76.71875 C 11.640625 -81.507812 10.546875 -86.15625 10.546875 -90.65625 C 10.546875 -100.570312 14.4375 -108.523438 22.21875 -114.515625 C 30.007812 -120.515625 40.65625 -123.515625 54.15625 -123.515625 C 63.957031 -123.515625 72.171875 -121.988281 78.796875 -118.9375 C 85.429688 -115.882812 91.054688 -112.164062 95.671875 -107.78125 L 80.625 -83.734375 C 81.539062 -91.460938 80.441406 -98.066406 77.328125 -103.546875 C 74.210938 -109.023438 69.914062 -113.234375 64.4375 -116.171875 C 58.957031 -119.109375 52.929688 -120.578125 46.359375 -120.578125 C 38.171875 -120.578125 32.347656 -118.441406 28.890625 -114.171875 C 25.429688 -109.910156 23.703125 -104.664062 23.703125 -98.4375 C 23.703125 -91.75 25.375 -86.441406 28.71875 -82.515625 C 32.0625 -78.597656 36.441406 -75.570312 41.859375 -73.4375 C 47.285156 -71.300781 53 -69.539062 59 -68.15625 Z M 59 -68.15625 "/></g></g></g></g></g><g transform="matrix(1, 0, 0, 1, 192, 95)"><g clip-path="url(#c5a4b6dcad)"><g fill="#1b1a1a" fill-opacity="1"><g transform="translate(0.360284, 140.438901)"><g><path d="M 75.75 -18.375 C 78.53125 -14.664062 81.007812 -11.71875 83.1875 -9.53125 C 85.375 -7.351562 87.535156 -5.59375 89.671875 -4.25 C 91.804688 -2.90625 94.078125 -1.628906 96.484375 -0.421875 L 96.484375 0 L 72.6875 0 L 72.6875 -2.359375 L 45.25 -40.234375 L 25.484375 -40.234375 L 25.484375 -7.9375 C 25.484375 -5.425781 26.523438 -3.679688 28.609375 -2.703125 C 30.703125 -1.734375 33.1875 -1.066406 36.0625 -0.703125 L 36.0625 0 L 2.09375 0 L 2.09375 -0.703125 C 4.96875 -1.066406 7.445312 -1.734375 9.53125 -2.703125 C 11.625 -3.679688 12.671875 -5.425781 12.671875 -7.9375 L 12.671875 -89.53125 C 12.671875 -92.03125 11.625 -93.765625 9.53125 -94.734375 C 7.445312 -95.710938 4.96875 -96.390625 2.09375 -96.765625 L 2.09375 -97.46875 L 49.984375 -97.46875 C 60.847656 -97.46875 69.570312 -95.351562 76.15625 -91.125 C 82.75 -86.90625 86.046875 -80.570312 86.046875 -72.125 C 86.046875 -64.789062 83.582031 -58.429688 78.65625 -53.046875 C 73.738281 -47.660156 66.96875 -43.945312 58.34375 -41.90625 Z M 25.484375 -45.8125 C 32.722656 -43.769531 40.007812 -42.75 47.34375 -42.75 C 53.375 -42.75 58.316406 -43.441406 62.171875 -44.828125 C 66.023438 -46.222656 68.878906 -48.679688 70.734375 -52.203125 C 72.585938 -55.734375 73.515625 -60.703125 73.515625 -67.109375 C 73.515625 -70.546875 73.140625 -73.910156 72.390625 -77.203125 C 71.648438 -80.492188 70.210938 -83.484375 68.078125 -86.171875 C 65.953125 -88.867188 62.820312 -91.003906 58.6875 -92.578125 C 54.550781 -94.160156 49.144531 -94.953125 42.46875 -94.953125 L 25.484375 -94.953125 Z M 25.484375 -45.8125 "/></g></g></g></g></g><g transform="matrix(1, 0, 0, 1, 98, 245)"><g clip-path="url(#8b2e76cc59)"><g fill="#1b1a1a" fill-opacity="1"><g transform="translate(1.088282, 29.601286)"><g><path d="M 1.125 -5.96875 C 1.125 -7.382812 1.519531 -8.585938 2.3125 -9.578125 C 3.101562 -10.566406 4.070312 -11.320312 5.21875 -11.84375 C 4.707031 -12.46875 4.304688 -12.984375 4.015625 -13.390625 C 3.734375 -13.796875 3.453125 -14.351562 3.171875 -15.0625 C 2.898438 -15.78125 2.765625 -16.503906 2.765625 -17.234375 C 2.765625 -18.765625 3.253906 -19.972656 4.234375 -20.859375 C 5.210938 -21.742188 6.429688 -22.1875 7.890625 -22.1875 C 9.296875 -22.1875 10.410156 -21.859375 11.234375 -21.203125 C 12.066406 -20.554688 12.484375 -19.988281 12.484375 -19.5 C 12.484375 -19.300781 12.421875 -19.132812 12.296875 -19 C 12.171875 -18.875 12.007812 -18.8125 11.8125 -18.8125 C 11.675781 -18.8125 11.507812 -18.921875 11.3125 -19.140625 C 11.113281 -19.359375 10.910156 -19.597656 10.703125 -19.859375 C 10.492188 -20.128906 10.148438 -20.375 9.671875 -20.59375 C 9.191406 -20.8125 8.640625 -20.921875 8.015625 -20.921875 C 6.878906 -20.921875 5.984375 -20.570312 5.328125 -19.875 C 4.679688 -19.1875 4.359375 -18.269531 4.359375 -17.125 C 4.359375 -16.15625 4.585938 -15.28125 5.046875 -14.5 C 5.503906 -13.71875 6.175781 -12.847656 7.0625 -11.890625 L 13.375 -4.890625 C 14.070312 -6.472656 14.441406 -8.40625 14.484375 -10.6875 C 14.484375 -11.15625 14.707031 -11.390625 15.15625 -11.390625 C 15.570312 -11.390625 15.78125 -11.101562 15.78125 -10.53125 C 15.78125 -8 15.304688 -5.773438 14.359375 -3.859375 L 17.15625 -0.828125 C 17.269531 -0.671875 17.328125 -0.539062 17.328125 -0.4375 C 17.328125 -0.257812 17.253906 -0.113281 17.109375 0 C 16.972656 0.113281 16.816406 0.171875 16.640625 0.171875 C 16.484375 0.171875 16.335938 0.101562 16.203125 -0.03125 L 13.65625 -2.765625 C 12.269531 -0.722656 10.300781 0.296875 7.75 0.296875 C 5.707031 0.296875 4.09375 -0.304688 2.90625 -1.515625 C 1.71875 -2.722656 1.125 -4.207031 1.125 -5.96875 Z M 2.640625 -6.109375 C 2.640625 -4.722656 3.117188 -3.539062 4.078125 -2.5625 C 5.035156 -1.582031 6.335938 -1.09375 7.984375 -1.09375 C 10.078125 -1.09375 11.648438 -1.972656 12.703125 -3.734375 L 6.078125 -10.859375 C 5.609375 -10.597656 5.21875 -10.359375 4.90625 -10.140625 C 4.601562 -9.929688 4.253906 -9.632812 3.859375 -9.25 C 3.460938 -8.863281 3.160156 -8.40625 2.953125 -7.875 C 2.742188 -7.351562 2.640625 -6.765625 2.640625 -6.109375 Z M 2.640625 -6.109375 "/></g></g></g><g fill="#1b1a1a" fill-opacity="1"><g transform="translate(22.211126, 29.601286)"><g/></g></g><g fill="#1b1a1a" fill-opacity="1"><g transform="translate(31.408381, 29.601286)"><g><path d="M 0.6875 -0.65625 C 0.6875 -0.726562 0.695312 -0.785156 0.71875 -0.828125 L 7.0625 -21.328125 C 7.175781 -21.691406 7.453125 -21.875 7.890625 -21.875 C 8.328125 -21.875 8.601562 -21.691406 8.71875 -21.328125 L 15.015625 -0.828125 C 15.015625 -0.804688 15.019531 -0.78125 15.03125 -0.75 C 15.039062 -0.726562 15.046875 -0.695312 15.046875 -0.65625 C 15.046875 -0.476562 14.957031 -0.320312 14.78125 -0.1875 C 14.601562 -0.0625 14.40625 0 14.1875 0 C 13.863281 0 13.664062 -0.144531 13.59375 -0.4375 L 12.140625 -5.15625 L 3.59375 -5.15625 L 2.171875 -0.4375 C 2.066406 -0.144531 1.847656 0 1.515625 0 C 1.296875 0 1.101562 -0.0546875 0.9375 -0.171875 C 0.769531 -0.296875 0.6875 -0.457031 0.6875 -0.65625 Z M 3.96875 -6.53125 L 11.71875 -6.53125 L 7.890625 -19.203125 Z M 3.96875 -6.53125 "/></g></g></g><g fill="#1b1a1a" fill-opacity="1"><g transform="translate(50.395286, 29.601286)"><g><path d="M 1.15625 -2.90625 C 1.15625 -3.101562 1.226562 -3.289062 1.375 -3.46875 C 1.53125 -3.644531 1.6875 -3.734375 1.84375 -3.734375 C 1.957031 -3.734375 2.132812 -3.609375 2.375 -3.359375 L 3.171875 -2.5 C 3.472656 -2.175781 3.953125 -1.882812 4.609375 -1.625 C 5.273438 -1.375 6.039062 -1.25 6.90625 -1.25 C 8.4375 -1.25 9.601562 -1.625 10.40625 -2.375 C 11.21875 -3.125 11.625 -4.234375 11.625 -5.703125 C 11.625 -6.804688 11.375 -7.722656 10.875 -8.453125 C 10.382812 -9.179688 9.773438 -9.703125 9.046875 -10.015625 C 8.316406 -10.335938 7.519531 -10.664062 6.65625 -11 C 5.800781 -11.34375 5.003906 -11.675781 4.265625 -12 C 3.535156 -12.320312 2.921875 -12.859375 2.421875 -13.609375 C 1.929688 -14.367188 1.6875 -15.320312 1.6875 -16.46875 C 1.6875 -17.5 1.875 -18.375 2.25 -19.09375 C 2.625 -19.8125 3.128906 -20.351562 3.765625 -20.71875 C 4.398438 -21.09375 5.035156 -21.351562 5.671875 -21.5 C 6.316406 -21.644531 7.007812 -21.71875 7.75 -21.71875 C 8.9375 -21.71875 10.035156 -21.546875 11.046875 -21.203125 C 12.066406 -20.859375 12.578125 -20.46875 12.578125 -20.03125 C 12.578125 -19.851562 12.507812 -19.664062 12.375 -19.46875 C 12.238281 -19.269531 12.078125 -19.171875 11.890625 -19.171875 C 11.796875 -19.171875 11.578125 -19.265625 11.234375 -19.453125 C 10.898438 -19.640625 10.421875 -19.828125 9.796875 -20.015625 C 9.179688 -20.203125 8.488281 -20.296875 7.71875 -20.296875 C 6.425781 -20.296875 5.34375 -20.015625 4.46875 -19.453125 C 3.601562 -18.890625 3.171875 -17.9375 3.171875 -16.59375 C 3.171875 -15.78125 3.351562 -15.097656 3.71875 -14.546875 C 4.082031 -14.003906 4.554688 -13.582031 5.140625 -13.28125 C 5.722656 -12.988281 6.363281 -12.722656 7.0625 -12.484375 C 7.769531 -12.253906 8.476562 -11.988281 9.1875 -11.6875 C 9.90625 -11.394531 10.554688 -11.03125 11.140625 -10.59375 C 11.722656 -10.15625 12.195312 -9.535156 12.5625 -8.734375 C 12.925781 -7.929688 13.109375 -6.96875 13.109375 -5.84375 C 13.109375 -3.820312 12.5625 -2.3125 11.46875 -1.3125 C 10.375 -0.320312 8.90625 0.171875 7.0625 0.171875 C 5.363281 0.171875 3.953125 -0.191406 2.828125 -0.921875 C 1.710938 -1.648438 1.15625 -2.3125 1.15625 -2.90625 Z M 1.15625 -2.90625 "/></g></g></g><g fill="#1b1a1a" fill-opacity="1"><g transform="translate(68.10658, 29.601286)"><g><path d="M 1.15625 -2.90625 C 1.15625 -3.101562 1.226562 -3.289062 1.375 -3.46875 C 1.53125 -3.644531 1.6875 -3.734375 1.84375 -3.734375 C 1.957031 -3.734375 2.132812 -3.609375 2.375 -3.359375 L 3.171875 -2.5 C 3.472656 -2.175781 3.953125 -1.882812 4.609375 -1.625 C 5.273438 -1.375 6.039062 -1.25 6.90625 -1.25 C 8.4375 -1.25 9.601562 -1.625 10.40625 -2.375 C 11.21875 -3.125 11.625 -4.234375 11.625 -5.703125 C 11.625 -6.804688 11.375 -7.722656 10.875 -8.453125 C 10.382812 -9.179688 9.773438 -9.703125 9.046875 -10.015625 C 8.316406 -10.335938 7.519531 -10.664062 6.65625 -11 C 5.800781 -11.34375 5.003906 -11.675781 4.265625 -12 C 3.535156 -12.320312 2.921875 -12.859375 2.421875 -13.609375 C 1.929688 -14.367188 1.6875 -15.320312 1.6875 -16.46875 C 1.6875 -17.5 1.875 -18.375 2.25 -19.09375 C 2.625 -19.8125 3.128906 -20.351562 3.765625 -20.71875 C 4.398438 -21.09375 5.035156 -21.351562 5.671875 -21.5 C 6.316406 -21.644531 7.007812 -21.71875 7.75 -21.71875 C 8.9375 -21.71875 10.035156 -21.546875 11.046875 -21.203125 C 12.066406 -20.859375 12.578125 -20.46875 12.578125 -20.03125 C 12.578125 -19.851562 12.507812 -19.664062 12.375 -19.46875 C 12.238281 -19.269531 12.078125 -19.171875 11.890625 -19.171875 C 11.796875 -19.171875 11.578125 -19.265625 11.234375 -19.453125 C 10.898438 -19.640625 10.421875 -19.828125 9.796875 -20.015625 C 9.179688 -20.203125 8.488281 -20.296875 7.71875 -20.296875 C 6.425781 -20.296875 5.34375 -20.015625 4.46875 -19.453125 C 3.601562 -18.890625 3.171875 -17.9375 3.171875 -16.59375 C 3.171875 -15.78125 3.351562 -15.097656 3.71875 -14.546875 C 4.082031 -14.003906 4.554688 -13.582031 5.140625 -13.28125 C 5.722656 -12.988281 6.363281 -12.722656 7.0625 -12.484375 C 7.769531 -12.253906 8.476562 -11.988281 9.1875 -11.6875 C 9.90625 -11.394531 10.554688 -11.03125 11.140625 -10.59375 C 11.722656 -10.15625 12.195312 -9.535156 12.5625 -8.734375 C 12.925781 -7.929688 13.109375 -6.96875 13.109375 -5.84375 C 13.109375 -3.820312 12.5625 -2.3125 11.46875 -1.3125 C 10.375 -0.320312 8.90625 0.171875 7.0625 0.171875 C 5.363281 0.171875 3.953125 -0.191406 2.828125 -0.921875 C 1.710938 -1.648438 1.15625 -2.3125 1.15625 -2.90625 Z M 1.15625 -2.90625 "/></g></g></g><g fill="#1b1a1a" fill-opacity="1"><g transform="translate(85.817873, 29.601286)"><g><path d="M 2.140625 -6.046875 L 2.140625 -15.453125 C 2.140625 -17.609375 2.675781 -19.1875 3.75 -20.1875 C 4.832031 -21.1875 6.28125 -21.6875 8.09375 -21.6875 C 9.894531 -21.6875 11.34375 -21.1875 12.4375 -20.1875 C 13.539062 -19.1875 14.09375 -17.609375 14.09375 -15.453125 L 14.09375 -6.046875 C 14.09375 -3.890625 13.539062 -2.3125 12.4375 -1.3125 C 11.34375 -0.320312 9.894531 0.171875 8.09375 0.171875 C 6.28125 0.171875 4.832031 -0.320312 3.75 -1.3125 C 2.675781 -2.3125 2.140625 -3.890625 2.140625 -6.046875 Z M 3.625 -6.046875 C 3.625 -2.847656 5.113281 -1.25 8.09375 -1.25 C 9.539062 -1.25 10.65625 -1.648438 11.4375 -2.453125 C 12.21875 -3.253906 12.609375 -4.453125 12.609375 -6.046875 L 12.609375 -15.453125 C 12.609375 -17.054688 12.21875 -18.257812 11.4375 -19.0625 C 10.65625 -19.863281 9.539062 -20.265625 8.09375 -20.265625 C 5.113281 -20.265625 3.625 -18.660156 3.625 -15.453125 Z M 3.625 -6.046875 "/></g></g></g><g fill="#1b1a1a" fill-opacity="1"><g transform="translate(105.309095, 29.601286)"><g><path d="M 2.140625 -6.046875 L 2.140625 -15.453125 C 2.140625 -17.585938 2.695312 -19.160156 3.8125 -20.171875 C 4.925781 -21.179688 6.382812 -21.6875 8.1875 -21.6875 C 10.007812 -21.6875 11.445312 -21.21875 12.5 -20.28125 C 13.5625 -19.34375 14.09375 -18.210938 14.09375 -16.890625 C 14.09375 -16.503906 14.03125 -16.242188 13.90625 -16.109375 C 13.789062 -15.972656 13.609375 -15.90625 13.359375 -15.90625 C 12.859375 -15.90625 12.609375 -16.113281 12.609375 -16.53125 C 12.585938 -16.945312 12.507812 -17.335938 12.375 -17.703125 C 12.25 -18.066406 12.039062 -18.460938 11.75 -18.890625 C 11.46875 -19.316406 11.019531 -19.648438 10.40625 -19.890625 C 9.800781 -20.140625 9.0625 -20.265625 8.1875 -20.265625 C 5.144531 -20.265625 3.625 -18.660156 3.625 -15.453125 L 3.625 -6.046875 C 3.625 -2.847656 5.175781 -1.25 8.28125 -1.25 C 8.988281 -1.25 9.601562 -1.335938 10.125 -1.515625 C 10.65625 -1.691406 11.0625 -1.894531 11.34375 -2.125 C 11.632812 -2.351562 11.875 -2.664062 12.0625 -3.0625 C 12.25 -3.46875 12.367188 -3.789062 12.421875 -4.03125 C 12.484375 -4.269531 12.546875 -4.597656 12.609375 -5.015625 C 12.648438 -5.429688 12.890625 -5.640625 13.328125 -5.640625 C 13.597656 -5.640625 13.789062 -5.566406 13.90625 -5.421875 C 14.03125 -5.285156 14.09375 -5.019531 14.09375 -4.625 C 14.09375 -3.320312 13.550781 -2.195312 12.46875 -1.25 C 11.394531 -0.300781 9.9375 0.171875 8.09375 0.171875 C 6.320312 0.171875 4.882812 -0.328125 3.78125 -1.328125 C 2.6875 -2.335938 2.140625 -3.910156 2.140625 -6.046875 Z M 2.140625 -6.046875 "/></g></g></g><g fill="#1b1a1a" fill-opacity="1"><g transform="translate(123.910353, 29.601286)"><g><path d="M 2.34375 -0.65625 L 2.34375 -21.0625 C 2.34375 -21.476562 2.585938 -21.6875 3.078125 -21.6875 C 3.578125 -21.6875 3.828125 -21.476562 3.828125 -21.0625 L 3.828125 -0.65625 C 3.828125 -0.21875 3.578125 0 3.078125 0 C 2.585938 0 2.34375 -0.21875 2.34375 -0.65625 Z M 2.34375 -0.65625 "/></g></g></g><g fill="#1b1a1a" fill-opacity="1"><g transform="translate(133.344949, 29.601286)"><g><path d="M 0.6875 -0.65625 C 0.6875 -0.726562 0.695312 -0.785156 0.71875 -0.828125 L 7.0625 -21.328125 C 7.175781 -21.691406 7.453125 -21.875 7.890625 -21.875 C 8.328125 -21.875 8.601562 -21.691406 8.71875 -21.328125 L 15.015625 -0.828125 C 15.015625 -0.804688 15.019531 -0.78125 15.03125 -0.75 C 15.039062 -0.726562 15.046875 -0.695312 15.046875 -0.65625 C 15.046875 -0.476562 14.957031 -0.320312 14.78125 -0.1875 C 14.601562 -0.0625 14.40625 0 14.1875 0 C 13.863281 0 13.664062 -0.144531 13.59375 -0.4375 L 12.140625 -5.15625 L 3.59375 -5.15625 L 2.171875 -0.4375 C 2.066406 -0.144531 1.847656 0 1.515625 0 C 1.296875 0 1.101562 -0.0546875 0.9375 -0.171875 C 0.769531 -0.296875 0.6875 -0.457031 0.6875 -0.65625 Z M 3.96875 -6.53125 L 11.71875 -6.53125 L 7.890625 -19.203125 Z M 3.96875 -6.53125 "/></g></g></g><g fill="#1b1a1a" fill-opacity="1"><g transform="translate(152.331854, 29.601286)"><g><path d="M 0.609375 -20.46875 C 0.492188 -20.613281 0.4375 -20.785156 0.4375 -20.984375 C 0.4375 -21.179688 0.492188 -21.347656 0.609375 -21.484375 C 0.734375 -21.617188 0.882812 -21.6875 1.0625 -21.6875 L 12.8125 -21.6875 C 13.226562 -21.6875 13.4375 -21.457031 13.4375 -21 C 13.4375 -20.507812 13.226562 -20.265625 12.8125 -20.265625 L 7.71875 -20.265625 L 7.71875 -0.65625 C 7.71875 -0.21875 7.46875 0 6.96875 0 C 6.476562 0 6.234375 -0.21875 6.234375 -0.65625 L 6.234375 -20.265625 L 1.0625 -20.265625 C 0.882812 -20.265625 0.734375 -20.332031 0.609375 -20.46875 Z M 0.609375 -20.46875 "/></g></g></g><g fill="#1b1a1a" fill-opacity="1"><g transform="translate(169.479495, 29.601286)"><g><path d="M 2.34375 -0.65625 L 2.34375 -21.03125 C 2.34375 -21.46875 2.582031 -21.6875 3.0625 -21.6875 L 13.625 -21.6875 C 14.039062 -21.6875 14.25 -21.457031 14.25 -21 C 14.25 -20.8125 14.1875 -20.640625 14.0625 -20.484375 C 13.945312 -20.335938 13.800781 -20.265625 13.625 -20.265625 L 3.828125 -20.265625 L 3.828125 -11.546875 L 8.546875 -11.546875 C 8.722656 -11.546875 8.867188 -11.472656 8.984375 -11.328125 C 9.109375 -11.191406 9.171875 -11.023438 9.171875 -10.828125 C 9.171875 -10.390625 8.960938 -10.171875 8.546875 -10.171875 L 3.828125 -10.171875 L 3.828125 -1.421875 L 13.625 -1.421875 C 13.800781 -1.421875 13.945312 -1.347656 14.0625 -1.203125 C 14.1875 -1.054688 14.25 -0.882812 14.25 -0.6875 C 14.25 -0.226562 14.039062 0 13.625 0 L 3.0625 0 C 2.582031 0 2.34375 -0.21875 2.34375 -0.65625 Z M 2.34375 -0.65625 "/></g></g></g><g fill="#1b1a1a" fill-opacity="1"><g transform="translate(187.665427, 29.601286)"><g><path d="M 1.15625 -2.90625 C 1.15625 -3.101562 1.226562 -3.289062 1.375 -3.46875 C 1.53125 -3.644531 1.6875 -3.734375 1.84375 -3.734375 C 1.957031 -3.734375 2.132812 -3.609375 2.375 -3.359375 L 3.171875 -2.5 C 3.472656 -2.175781 3.953125 -1.882812 4.609375 -1.625 C 5.273438 -1.375 6.039062 -1.25 6.90625 -1.25 C 8.4375 -1.25 9.601562 -1.625 10.40625 -2.375 C 11.21875 -3.125 11.625 -4.234375 11.625 -5.703125 C 11.625 -6.804688 11.375 -7.722656 10.875 -8.453125 C 10.382812 -9.179688 9.773438 -9.703125 9.046875 -10.015625 C 8.316406 -10.335938 7.519531 -10.664062 6.65625 -11 C 5.800781 -11.34375 5.003906 -11.675781 4.265625 -12 C 3.535156 -12.320312 2.921875 -12.859375 2.421875 -13.609375 C 1.929688 -14.367188 1.6875 -15.320312 1.6875 -16.46875 C 1.6875 -17.5 1.875 -18.375 2.25 -19.09375 C 2.625 -19.8125 3.128906 -20.351562 3.765625 -20.71875 C 4.398438 -21.09375 5.035156 -21.351562 5.671875 -21.5 C 6.316406 -21.644531 7.007812 -21.71875 7.75 -21.71875 C 8.9375 -21.71875 10.035156 -21.546875 11.046875 -21.203125 C 12.066406 -20.859375 12.578125 -20.46875 12.578125 -20.03125 C 12.578125 -19.851562 12.507812 -19.664062 12.375 -19.46875 C 12.238281 -19.269531 12.078125 -19.171875 11.890625 -19.171875 C 11.796875 -19.171875 11.578125 -19.265625 11.234375 -19.453125 C 10.898438 -19.640625 10.421875 -19.828125 9.796875 -20.015625 C 9.179688 -20.203125 8.488281 -20.296875 7.71875 -20.296875 C 6.425781 -20.296875 5.34375 -20.015625 4.46875 -19.453125 C 3.601562 -18.890625 3.171875 -17.9375 3.171875 -16.59375 C 3.171875 -15.78125 3.351562 -15.097656 3.71875 -14.546875 C 4.082031 -14.003906 4.554688 -13.582031 5.140625 -13.28125 C 5.722656 -12.988281 6.363281 -12.722656 7.0625 -12.484375 C 7.769531 -12.253906 8.476562 -11.988281 9.1875 -11.6875 C 9.90625 -11.394531 10.554688 -11.03125 11.140625 -10.59375 C 11.722656 -10.15625 12.195312 -9.535156 12.5625 -8.734375 C 12.925781 -7.929688 13.109375 -6.96875 13.109375 -5.84375 C 13.109375 -3.820312 12.5625 -2.3125 11.46875 -1.3125 C 10.375 -0.320312 8.90625 0.171875 7.0625 0.171875 C 5.363281 0.171875 3.953125 -0.191406 2.828125 -0.921875 C 1.710938 -1.648438 1.15625 -2.3125 1.15625 -2.90625 Z M 1.15625 -2.90625 "/></g></g></g></g></g></svg>